# xmcd CD database file
#
# Track frame offsets:
#	150
#	16082
#	32728
#	47765
#	66674
#	81350
#	94902
#	110112
#	128039
#	144122
#
# Disc length: 2125 seconds
#
# Revision: 1
# Processed by: cddbd v1.5.2PL0 Copyright (c) Steve Scherf et al.
# Submitted via: CDex 1.83
#
DISCID=87084b0a
DTITLE=G.C. Cameron - G.C. Cameron - G.C. Cameron (2014 Remastered)
DYEAR=1976
DGENRE=Soul
TTITLE0=Dream Lady (McFaddin-Brown-Caston)
TTITLE1=Me And My Life (Ross-Gibbs)
TTITLE2=If I Ever Lose This Heaven (Ware-Sawyer)
TTITLE3=Include Me In Your Life (McLeod-Bolton)
TTITLE4=Don't You Want To Give It Up (G.C.Cameron)
TTITLE5=Truly Blue (McFaddin-Brown)
TTITLE6=The Joy You Bring (G.C.Cameron)
TTITLE7=Share Your Life (Let Me In) (E.& K.Stover)
TTITLE8=Strong Love (G.C.Cameron)
TTITLE9=It's So Hard To Say Goodbye To Yesterday (Perren-Yaran)
EXTD=YEAR: 1976
EXTT0=
EXTT1=
EXTT2=
EXTT3=
EXTT4=
EXTT5=
EXTT6=
EXTT7=
EXTT8=
EXTT9=
PLAYORDER=
